<svg width="13" height="13" fill="none" xmlns="http://www.w3.org/2000/svg"><path d="M9.412 0H3.587A3.592 3.592 0 0 0 0 3.588v5.824A3.592 3.592 0 0 0 3.587 13h5.825A3.592 3.592 0 0 0 13 9.412V3.588A3.592 3.592 0 0 0 9.412 0Zm2.435 9.412a2.437 2.437 0 0 1-2.435 2.435H3.587a2.437 2.437 0 0 1-2.434-2.435V3.588a2.437 2.437 0 0 1 2.434-2.435h5.825a2.437 2.437 0 0 1 2.435 2.435v5.824Z" fill="#fff"/><path d="M6.5 3.15A3.354 3.354 0 0 0 3.15 6.5 3.353 3.353 0 0 0 6.5 9.85 3.353 3.353 0 0 0 9.85 6.5 3.354 3.354 0 0 0 6.5 3.15Zm0 5.546A2.199 2.199 0 0 1 4.304 6.5c0-1.211.985-2.196 2.196-2.196 1.211 0 2.196.985 2.196 2.196A2.199 2.199 0 0 1 6.5 8.696ZM9.99 2.172a.85.85 0 0 0-.846.846c0 .223.091.44.249.598a.852.852 0 0 0 .597.248c.223 0 .44-.09.598-.248a.85.85 0 0 0-.598-1.444Z" fill="#fff"/></svg>