<svg width="25" height="25" fill="none" xmlns="http://www.w3.org/2000/svg"><g clip-path="url(#a)" fill="#2D383F"><path d="M24.17 22.28V6.701a.463.463 0 0 0-.602-.463v.023l-2.084.653a6.25 6.25 0 0 0 .384-1.82 5.094 5.094 0 1 0-10.188 0c.033.594.153 1.179.357 1.737L8.59 5.599a.493.493 0 0 0-.12 0h-.037a.463.463 0 0 0-.162.032l-7.146 2.78a.463.463 0 0 0-.297.388V24.396a.463.463 0 0 0 .63.431l6.984-2.704 7.965 2.853c.097.032.2.032.297 0l7.141-2.233a.463.463 0 0 0 .324-.463ZM16.774.926a4.168 4.168 0 0 1 4.168 4.168c0 1.811-2.718 6.813-4.168 9.262-1.45-2.468-4.168-7.474-4.168-9.262A4.168 4.168 0 0 1 16.774.926Zm6.484 21.035-6.234 1.95v-3.534a.463.463 0 0 0-.926 0v3.501l-7.197-2.575V18.34a.463.463 0 0 0-.926 0v2.964l-6.22 2.422v-7.16l2.288-.926a.463.463 0 1 0-.342-.856l-1.945.782V9.12l6.22-2.409V8.1a.463.463 0 0 0 .925 0V6.692l3.552 1.274a64.306 64.306 0 0 0 3.923 7.558.463.463 0 0 0 .792 0 64.57 64.57 0 0 0 3.909-7.512l2.167-.68.014 7.59-2.348.57a.466.466 0 0 0 .111.925.459.459 0 0 0 .111 0l2.126-.518v6.062Z"/><path d="M16.756 2.404a2.69 2.69 0 1 0 0 5.381 2.69 2.69 0 0 0 0-5.381Zm0 4.455a1.77 1.77 0 0 1-1.746-1.765h-.019a1.764 1.764 0 1 1 1.765 1.765ZM10.698 13.967v.014l-2.241-.968a.464.464 0 0 0-.357 0l-1.894.765a.464.464 0 1 0 .347.861l1.714-.69 2.06.87a.465.465 0 0 0 .186.038.463.463 0 0 0 .185-.89ZM18.27 16.616a.463.463 0 0 0-.523-.32l.004-.036-1.148.278-1.945-.843a.465.465 0 1 0-.37.852l2.083.926a.464.464 0 0 0 .186.037h.11l1.297-.315a.463.463 0 0 0 .306-.579Z"/></g><defs><clipPath id="a"><path fill="#fff" d="M0 0h25v25H0z"/></clipPath></defs></svg>