<svg width="25" height="25" fill="none" xmlns="http://www.w3.org/2000/svg"><g clip-path="url(#a)" fill="#2D383F"><path d="m23.415 24.188-4.04-9.398-3.817-8.882a.477.477 0 0 0-.877 0l-3.407 7.904-1.335 3.106-2.93-6.76a.477.477 0 0 0-.877 0l-2.753 6.36-3.34 7.665a.477.477 0 0 0 .44.668h22.498a.477.477 0 0 0 .438-.663Zm-8.3-16.892 3.096 7.199h-1.088l-1.965-2.171a.477.477 0 0 0-.754.062l-.735 1.135h-1.23l2.676-6.225ZM6.57 11.532l2.447 5.658H7.682a.477.477 0 0 0-.4.22l-.478.758-1.23-1.737a.477.477 0 0 0-.391-.205h-.635l2.023-4.694ZM1.228 23.897l2.905-6.717h.801l1.489 2.123a.477.477 0 0 0 .391.205.477.477 0 0 0 .391-.22l.735-1.134h1.488l2.486 5.724-10.686.02Zm11.73 0-2.5-5.772 1.57-3.65h1.908a.477.477 0 0 0 .401-.219l.53-.816 1.688 1.866c.09.1.219.157.353.157h1.708l3.63 8.448-9.288-.014ZM7.611 2.082a2.252 2.252 0 0 0-4.35.806 2.18 2.18 0 0 0 0 .248 2.252 2.252 0 0 0 .906 4.293l.024.02H7.53a2.684 2.684 0 1 0 .081-5.367Zm-.053 4.427H4.22a1.3 1.3 0 1 1-.267-2.586.477.477 0 0 0 .358-.62 1.298 1.298 0 1 1 2.505-.644c.043.25.276.423.529.391.071-.005.143-.005.214 0a1.73 1.73 0 0 1 0 3.459ZM23.697 2.64a2.184 2.184 0 0 0 0-.248 2.252 2.252 0 0 0-4.343-.825 2.684 2.684 0 0 0 .097 5.366h3.34a2.252 2.252 0 0 0 .906-4.293Zm.359 2.307a1.298 1.298 0 0 1-1.252 1.027h-3.339a1.73 1.73 0 0 1 0-3.458c.072-.005.143-.005.215 0a.477.477 0 0 0 .515-.372 1.298 1.298 0 1 1 2.505.644.477.477 0 0 0 .357.62c.701.15 1.148.838.999 1.54Z"/></g><defs><clipPath id="a"><path fill="#fff" d="M0 0h25v25H0z"/></clipPath></defs></svg>