<svg aria-hidden="true" style="position: absolute; width: 0; height: 0; overflow: hidden;" version="1.1" xmlns="http://www.w3.org/2000/svg" xmlns:xlink="http://www.w3.org/1999/xlink">
<defs>
<symbol id="icon-boots" viewBox="0 0 32 32">
<path d="M31.544 20.821c0.995-3.115 0.176-6.648-0.693-9.096-0.006-0.099-0.036-0.191-0.085-0.269l0.001 0.002c-0.287-0.796-0.557-1.431-0.857-2.048l0.055 0.127c0.42-0.17 0.712-0.573 0.716-1.045v-4.734c0-0.627-0.509-1.136-1.136-1.136-0 0-0.001 0-0.001 0h-13.96c-0.314 0-0.568 0.254-0.568 0.568 0 0.012 0 0.024 0.001 0.036l-0-0.002c0.193 3.409-0.057 5.72-0.779 7.352-0.014 0.015-0.027 0.032-0.039 0.049l-0.001 0.002c-0.001 0.013-0.002 0.028-0.002 0.043s0.001 0.030 0.002 0.045l-0-0.002c-0.291 0.62-0.66 1.151-1.103 1.61l0.002-0.002-0.052 0.035v0.040c-0.646 0.617-1.397 1.131-2.221 1.512l-0.051 0.021c-1.461 0.648-2.96 1.205-4.488 1.671l-0.291 0.096c-5.312 1.761-6.005 4.955-5.993 6.556-0.001 0.010-0.001 0.022-0.001 0.034s0 0.024 0.001 0.036l-0-0.002v4.057c0 0.197 0.104 0.38 0.272 0.483 1.303 0.792 2.707 1.4 4.176 1.807 0.046 0.013 0.099 0.021 0.154 0.021 0.314 0 0.568-0.254 0.568-0.568 0-0.007-0-0.015-0-0.022l0 0.001v-0.131h0.836v0.568c-0 0.002-0 0.005-0 0.007 0 0.282 0.205 0.515 0.474 0.56l0.003 0c0.493 0.080 0.988 0.143 1.471 0.183 0.014 0.001 0.029 0.002 0.045 0.002 0.314 0 0.568-0.254 0.568-0.568 0-0.001 0-0.002 0-0.003v0-0.716h0.836v0.808c0 0.313 0.253 0.568 0.568 0.568 0.477 0 0.955 0 1.467-0.068 0.293-0.025 0.521-0.269 0.521-0.566 0-0.001 0-0.002 0-0.003v0-0.737h0.836v0.5c-0 0.002-0 0.005-0 0.007 0 0.314 0.254 0.568 0.568 0.568 0.032 0 0.063-0.003 0.094-0.008l-0.003 0c1.043-0.16 2.071-0.405 3.073-0.733l0.091-0.040c3.977-2.272 6.5-0.403 6.603-0.324 0.099 0.077 0.221 0.12 0.347 0.12h0.704c0.313 0 0.568-0.255 0.568-0.568v-0.96h0.813v0.948c0 0.313 0.253 0.568 0.568 0.568h1.829c0.313 0 0.568-0.253 0.568-0.568v-0.949h0.84v0.949c0 0.313 0.255 0.568 0.569 0.568h1.403c0.313 0 0.568-0.253 0.568-0.568v-6.124c0-0.004 0-0.008 0-0.013 0-0.273-0.193-0.501-0.45-0.556l-0.004-0.001zM18.063 3.771h11.453v4.704h-11.453v-4.704zM10.92 15.1l0.005 0.033c0.467 0.379 0.896 0.799 1.284 1.256-0.096 0.158-0.153 0.349-0.153 0.553 0 0.005 0 0.011 0 0.016v-0.001c-0 0.002-0 0.005-0 0.008 0 0.599 0.486 1.085 1.085 1.085s1.085-0.486 1.085-1.085c0-0.566-0.433-1.030-0.985-1.081l-0.004-0c-0.37-0.502-0.772-0.943-1.213-1.339l-0.008-0.007c0.507-0.289 0.985-0.628 1.427-1.012 0.551 0.517 1.063 1.073 1.533 1.665-0.038 0.106-0.060 0.229-0.060 0.357 0 0.599 0.486 1.085 1.085 1.085s1.085-0.486 1.085-1.085c0-0.599-0.486-1.085-1.085-1.085-0.003 0-0.005 0-0.008 0h-0.137c-0.497-0.627-1.040-1.217-1.624-1.767 0.271-0.333 0.511-0.691 0.716-1.067 0.88 0.456 1.729 0.969 2.545 1.533-0 0.002-0 0.005-0 0.008 0 0.605 0.491 1.096 1.096 1.096s1.096-0.491 1.096-1.096c0-0.605-0.491-1.096-1.096-1.096-0.178 0-0.346 0.042-0.494 0.117l0.006-0.003c-0.753-0.518-1.628-1.042-2.536-1.513l-0.14-0.066c0.619-1.647 0.885-3.835 0.76-6.817h0.745v4.704c0 0.627 0.508 1.136 1.136 1.136h10.647c0.148 0.301 0.399 0.824 0.671 1.507h-0.233c-3.432 0.026-6.204 2.814-6.204 6.249 0 2.048 0.985 3.866 2.508 5.006l0.016 0.012c-4.597 1.209-11.512 2.647-17.329 2.272 1.073-4.289-0.211-6.932-1.045-8.091 1.3-0.427 2.577-0.924 3.824-1.488zM5.953 16.912c0.613 0.721 2.216 3.147 1.040 7.608-2.164-0.175-4.148-0.807-5.9-1.8l0.071 0.037c-0.019-0.112-0.033-0.247-0.040-0.384l-0-0.008v-0.040c-0.045-1.209 0.409-3.828 4.829-5.413zM30.593 26.945v-0.949c0 0 0 0 0 0 0-0.313-0.254-0.567-0.567-0.568h-1.972c-0.314 0-0.568 0.254-0.568 0.568v0 0.949h-0.699v-0.949c0-0.314-0.254-0.568-0.568-0.568h-1.96c-0 0-0.001 0-0.001 0-0.314 0-0.568 0.254-0.568 0.568 0 0 0 0 0 0v0 0.927c-0.772-0.483-3.596-1.887-7.6 0.352-0.713 0.236-1.44 0.425-2.177 0.568v-0.392c0-0.314-0.254-0.568-0.568-0.568v0h-1.959c-0.314 0-0.568 0.254-0.568 0.568v0 0.779h-0.289v-0.796c0 0 0 0 0 0 0-0.314-0.254-0.568-0.568-0.568-0 0-0.001 0-0.001 0h-1.971c-0.314 0-0.568 0.254-0.568 0.568v0 0.677l-0.291-0.040v-0.637c0-0.314-0.254-0.568-0.568-0.568v0h-1.971c-0.001 0-0.003 0-0.004 0-0.29 0-0.529 0.217-0.564 0.497l-0 0.003c-1.113-0.37-2.071-0.811-2.97-1.34l0.072 0.039v-2.033c2.477 1.312 5.683 1.807 9.091 1.807 9.056 0 19.42-3.467 20.64-3.88l0.007 4.988h-0.267zM30.316 20.952c-0.483 0.159-1.671 0.568-3.312 1.005-1.721-0.847-2.884-2.589-2.884-4.602 0-2.824 2.289-5.113 5.113-5.113 0.207 0 0.412 0.012 0.613 0.036l-0.024-0.002 0.007 0.017c0.835 2.408 1.584 5.845 0.488 8.657z"></path>
<path d="M20.249 4.459c-0.913 0-1.653 0.74-1.653 1.653s0.74 1.653 1.653 1.653v0c0.913 0 1.653-0.74 1.653-1.653s-0.74-1.653-1.653-1.653v0zM20.249 6.628c-0.008 0-0.017 0.001-0.026 0.001-0.286 0-0.517-0.232-0.517-0.517s0.232-0.517 0.517-0.517c0.009 0 0.018 0 0.028 0.001l-0.001-0c0.274 0.014 0.491 0.24 0.491 0.517s-0.217 0.502-0.49 0.517l-0.001 0z"></path>
</symbol>
<symbol id="icon-facebook" viewBox="0 0 32 32">
<path fill="#fff" style="fill: var(--color1, #fff)" d="M17.937 11.601v-3.875c0-1.068 0.867-1.935 1.935-1.935h1.937v-4.844h-3.872c-0.001 0-0.002 0-0.003 0-3.208 0-5.809 2.601-5.809 5.809v0 4.844h-3.872v4.841h3.872v15.494h5.812v-15.494h3.872l1.937-4.841h-5.809z"></path>
</symbol>
<symbol id="icon-Frame" viewBox="0 0 32 32">
<path fill="#fff" style="fill: var(--color1, #fff)" d="M11.758 20.737l2.817-2.957 3.204 2.957h5.492l-8.73-8.556-8.661 8.555h5.879z"></path>
<path fill="#fff" style="fill: var(--color1, #fff)" d="M19.821 7.006l-4.154 4.225 2.746 2.817 1.409-1.409 7.71 7.675c-1.76 4.683-6.267 8.027-11.583 8.027-6.83 0-12.357-5.528-12.357-12.358 0.035-6.83 5.562-12.357 12.392-12.357 6.056 0 11.125 4.401 12.146 10.139l3.732 3.943c0.067-0.518 0.106-1.117 0.106-1.725v-0c0-4.26-1.655-8.274-4.683-11.301s-7.041-4.682-11.301-4.682c-4.295 0-8.274 1.655-11.301 4.682s-4.682 7.006-4.682 11.301c0 4.295 1.655 8.274 4.682 11.301s7.042 4.683 11.301 4.683c4.26 0 8.274-1.655 11.301-4.683 1.866-1.866 3.204-4.084 3.943-6.513 0.141-0.423 0.246-0.88 0.352-1.303l-3.239-3.415-8.52-9.048z"></path>
</symbol>
<symbol id="icon-insta" viewBox="0 0 32 32">
<path fill="#fff" style="fill: var(--color1, #fff)" d="M23.168 0h-14.338c-4.874 0.007-8.824 3.957-8.83 8.831v14.337c0.006 4.875 3.955 8.825 8.829 8.832h14.339c4.876-0.006 8.826-3.956 8.832-8.831v-14.337c-0.006-4.876-3.956-8.826-8.831-8.832h-0.001zM29.162 23.168c-0.003 3.309-2.685 5.991-5.994 5.994h-14.339c-3.308-0.004-5.989-2.686-5.991-5.994v-14.336c0.003-3.308 2.683-5.99 5.991-5.994h14.339c3.309 0.003 5.991 2.685 5.994 5.994v14.336z"></path>
<path fill="#fff" style="fill: var(--color1, #fff)" d="M16 7.754c-4.552 0.006-8.241 3.694-8.246 8.246v0.001c0.004 4.553 3.694 8.242 8.246 8.246h0c4.553-0.004 8.242-3.694 8.246-8.246v-0c-0.006-4.552-3.694-8.241-8.246-8.246h-0.001zM16 21.406c-2.984-0.004-5.401-2.422-5.406-5.405v-0c0-2.981 2.425-5.406 5.406-5.406s5.406 2.425 5.406 5.406c-0.004 2.984-2.422 5.401-5.405 5.406h-0zM24.591 5.346c-1.148 0.006-2.077 0.935-2.082 2.082v0.001c0 0.549 0.224 1.083 0.613 1.472 0.377 0.375 0.896 0.608 1.469 0.61h0.001c0.549 0 1.083-0.222 1.472-0.61 0.368-0.377 0.596-0.893 0.596-1.462 0-1.147-0.923-2.078-2.067-2.092h-0.001z"></path>
</symbol>
<symbol id="icon-map" viewBox="0 0 32 32">
<path d="M30.938 28.518v-19.941c0-0.008 0.001-0.018 0.001-0.028 0-0.327-0.265-0.593-0.593-0.593-0.064 0-0.125 0.010-0.183 0.029l0.004-0.001v0.029l-2.668 0.836c0.264-0.686 0.44-1.48 0.49-2.307l0.001-0.022c0-3.601-2.919-6.52-6.52-6.52s-6.52 2.919-6.52 6.52v0c0.042 0.76 0.196 1.509 0.457 2.223l-4.412-1.577c-0.023-0.003-0.050-0.005-0.077-0.005s-0.054 0.002-0.080 0.005l0.003-0h-0.047c-0.075 0.001-0.146 0.016-0.211 0.042l0.004-0.001-9.147 3.558c-0.208 0.080-0.357 0.268-0.38 0.494l-0 0.002v19.964c0.001 0.327 0.266 0.592 0.593 0.592 0.077 0 0.15-0.015 0.218-0.041l-0.004 0.001 8.94-3.461 10.195 3.652c0.124 0.041 0.256 0.041 0.38 0l9.14-2.858c0.243-0.078 0.415-0.302 0.415-0.566 0-0.010-0-0.019-0.001-0.028l0 0.001zM21.471 1.185c2.946 0 5.335 2.389 5.335 5.335v0c0 2.318-3.479 8.721-5.335 11.855-1.856-3.159-5.335-9.567-5.335-11.855 0-2.946 2.389-5.335 5.335-5.335v0zM29.77 28.11l-7.98 2.496v-4.524c0-0.327-0.265-0.593-0.593-0.593s-0.593 0.265-0.593 0.593v0 4.481l-9.212-3.296v-3.793c0-0.327-0.265-0.593-0.593-0.593s-0.593 0.265-0.593 0.593v0 3.794l-7.962 3.1v-9.165l2.929-1.185c0.248-0.074 0.426-0.301 0.426-0.569 0-0.327-0.265-0.593-0.593-0.593-0.099 0-0.192 0.024-0.275 0.067l0.003-0.002-2.49 1.001v-8.251l7.962-3.084v1.778c0.015 0.315 0.274 0.565 0.592 0.565s0.577-0.25 0.592-0.564l0-0.001v-1.802l4.547 1.631c1.677 3.812 3.355 6.987 5.226 10.032l-0.204-0.357c0.106 0.172 0.293 0.286 0.507 0.286s0.401-0.113 0.505-0.283l0.001-0.003c1.656-2.668 3.328-5.824 4.794-9.092l0.21-0.523 2.774-0.87 0.018 9.715-3.005 0.73c-0.29 0.044-0.509 0.291-0.509 0.59 0 0.329 0.267 0.596 0.596 0.596 0.019 0 0.038-0.001 0.057-0.003l-0.002 0c0.021 0.003 0.046 0.004 0.071 0.004s0.050-0.002 0.074-0.005l-0.003 0 2.721-0.663v7.759z"></path>
<path d="M21.448 3.077c-1.902 0-3.444 1.542-3.444 3.444s1.542 3.444 3.444 3.444v0c1.902 0 3.444-1.542 3.444-3.444s-1.542-3.444-3.444-3.444v0zM21.448 8.78c-1.236-0.017-2.231-1.021-2.235-2.259v-0h-0.024c0.001-1.246 1.011-2.257 2.258-2.257s2.258 1.011 2.258 2.258c0 1.247-1.010 2.257-2.257 2.258h-0zM13.693 17.878v0.018l-2.868-1.239c-0.068-0.029-0.146-0.046-0.228-0.046s-0.161 0.017-0.232 0.047l0.004-0.001-2.424 0.979c-0.22 0.090-0.372 0.303-0.372 0.551 0 0.328 0.266 0.594 0.594 0.594 0.080 0 0.156-0.016 0.226-0.044l-0.004 0.001 2.194-0.883 2.637 1.114c0.069 0.031 0.15 0.049 0.236 0.049 0.001 0 0.002 0 0.003 0h-0c0.002 0 0.005 0 0.008 0 0.327 0 0.593-0.265 0.593-0.593 0-0.245-0.148-0.455-0.36-0.545l-0.004-0.001zM23.386 21.268c-0.077-0.244-0.301-0.419-0.567-0.419-0.036 0-0.072 0.003-0.107 0.010l0.004-0.001 0.005-0.046-1.469 0.356-2.49-1.079c-0.077-0.039-0.168-0.062-0.264-0.062-0.329 0-0.595 0.266-0.595 0.595 0 0.253 0.158 0.47 0.381 0.556l0.004 0.001 2.666 1.185c0.069 0.030 0.148 0.047 0.232 0.047 0.002 0 0.004 0 0.006-0h0.14l1.66-0.403c0.244-0.077 0.418-0.301 0.418-0.566 0-0.062-0.010-0.122-0.027-0.179l0.001 0.004z"></path>
</symbol>
<symbol id="icon-moon" viewBox="0 0 32 32">
<path fill="#fff" style="fill: var(--color1, #fff)" d="M31.243 18.211c-0.077-0.019-0.165-0.029-0.255-0.029-0.259 0-0.498 0.088-0.688 0.236l0.003-0.002c-1.033 0.887-2.239 1.61-3.556 2.107l-0.083 0.027c-1.197 0.468-2.583 0.74-4.032 0.74-0.035 0-0.070-0-0.104-0l0.005 0c-0.001 0-0.002 0-0.003 0-3.322 0-6.328-1.349-8.502-3.529l-0-0c-2.173-2.185-3.517-5.198-3.517-8.524 0-0.004 0-0.008 0-0.012v0.001c0-1.395 0.245-2.749 0.654-3.981 0.448-1.312 1.104-2.504 1.963-3.53 0.144-0.178 0.23-0.407 0.23-0.656 0-0.331-0.153-0.627-0.393-0.819l-0.002-0.002c-0.188-0.146-0.426-0.234-0.686-0.234-0.090 0-0.178 0.011-0.263 0.031l0.008-0.002c-3.475 0.944-6.502 3.037-8.669 5.827-2.090 2.709-3.351 6.152-3.354 9.889v0.001c0 4.474 1.8 8.536 4.744 11.491 2.919 2.94 6.962 4.76 11.431 4.76 0.006 0 0.012 0 0.018 0h-0.001c3.763 0 7.238-1.312 10.021-3.488 2.807-2.229 4.84-5.324 5.702-8.877l0.023-0.111c0.205-0.616-0.123-1.19-0.696-1.314zM24.987 26.787c-2.36 1.893-5.391 3.038-8.689 3.038-0.007 0-0.015 0-0.022-0h0.001c-3.886 0-7.403-1.6-9.938-4.144-2.552-2.553-4.131-6.079-4.131-9.975 0-0.001 0-0.001 0-0.001v0c0-3.242 1.064-6.195 2.904-8.576 1.258-1.63 2.827-2.956 4.627-3.902l0.077-0.037c-0.206 0.451-0.41 0.902-0.574 1.395-0.531 1.477-0.776 3.037-0.776 4.678 0 3.898 1.595 7.469 4.13 10.013 2.552 2.558 6.081 4.142 9.979 4.144h0c0.028 0 0.061 0 0.094 0 1.714 0 3.354-0.316 4.865-0.892l-0.094 0.031c0.533-0.205 1.064-0.411 1.555-0.656-1.007 1.938-2.355 3.565-3.978 4.86l-0.030 0.023z"></path>
</symbol>
<symbol id="icon-mountain" viewBox="0 0 32 32">
<path d="M29.971 30.961l-10.057-23.398c-0.096-0.22-0.311-0.37-0.561-0.37s-0.466 0.151-0.56 0.366l-0.002 0.004-4.361 10.117-1.709 3.976-3.75-8.653c-0.096-0.22-0.311-0.37-0.561-0.37s-0.466 0.151-0.56 0.366l-0.002 0.004-3.524 8.141-4.275 9.811c-0.032 0.072-0.051 0.156-0.051 0.244 0 0.337 0.273 0.611 0.611 0.611 0.001 0 0.003 0 0.004 0h28.797c0.337-0.001 0.609-0.274 0.609-0.611 0-0.086-0.018-0.168-0.050-0.242l0.002 0.004zM19.347 9.339l3.963 9.215h-1.393l-2.515-2.779c-0.112-0.123-0.273-0.2-0.452-0.2-0.214 0-0.403 0.11-0.512 0.277l-0.001 0.002-0.941 1.453h-1.574l3.425-7.968zM8.41 14.761l3.132 7.242h-1.709c-0.214 0.001-0.402 0.112-0.511 0.279l-0.001 0.002-0.612 0.97-1.574-2.223c-0.112-0.159-0.294-0.262-0.5-0.262h-0.813l2.589-6.008zM1.572 30.588l3.718-8.598h1.025l1.906 2.717c0.112 0.159 0.294 0.262 0.5 0.262h0c0.21-0.005 0.393-0.115 0.499-0.279l0.001-0.002 0.941-1.452h1.905l3.182 7.327-13.678 0.026zM16.586 30.588l-3.2-7.388 2.010-4.672h2.442c0.214-0 0.403-0.111 0.512-0.278l0.001-0.002 0.678-1.044 2.161 2.388c0.115 0.128 0.28 0.201 0.452 0.201h2.186l4.646 10.813-11.889-0.018zM9.742 2.665c-0.431-1.083-1.47-1.835-2.685-1.835-1.586 0-2.874 1.282-2.883 2.866v0.001c-0.003 0.047-0.005 0.103-0.005 0.159s0.002 0.111 0.005 0.166l-0-0.008c-0.992 0.47-1.666 1.463-1.666 2.613 0 1.572 1.258 2.85 2.822 2.882l0.003 0 0.031 0.026h4.274c0.028 0.001 0.060 0.001 0.093 0.001 1.897 0 3.436-1.538 3.436-3.436 0-1.894-1.532-3.43-3.424-3.436h-0.001zM9.674 8.332h-4.273c-0.058 0.007-0.126 0.011-0.194 0.011-0.919 0-1.664-0.745-1.664-1.664 0-0.867 0.663-1.579 1.51-1.657l0.007-0c0.282-0.058 0.49-0.304 0.49-0.599 0-0.070-0.012-0.137-0.033-0.199l0.001 0.004c-0.059-0.164-0.094-0.353-0.094-0.55 0-0.918 0.744-1.661 1.661-1.661 0.821 0 1.502 0.595 1.637 1.377l0.001 0.010c0.055 0.32 0.353 0.541 0.677 0.5 0.091-0.006 0.183-0.006 0.274 0 1.2 0.030 2.161 1.010 2.161 2.214s-0.961 2.184-2.158 2.214l-0.003 0zM30.332 3.379c0.003-0.047 0.005-0.103 0.005-0.159s-0.002-0.111-0.005-0.166l0 0.008c-0.008-1.586-1.296-2.868-2.883-2.868-1.206 0-2.24 0.741-2.67 1.793l-0.007 0.019c-1.84 0.073-3.303 1.582-3.303 3.433 0 1.894 1.533 3.431 3.427 3.436h4.276c1.567-0.032 2.825-1.31 2.825-2.882 0-1.15-0.674-2.143-1.648-2.606l-0.017-0.007zM30.792 6.332c-0.164 0.749-0.817 1.304-1.601 1.315h-4.275c-1.19-0.042-2.139-1.017-2.139-2.213s0.949-2.171 2.135-2.213l0.004-0c0.092-0.006 0.183-0.006 0.275 0 0.019 0.002 0.041 0.003 0.063 0.003 0.291 0 0.534-0.203 0.596-0.475l0.001-0.004c0.136-0.792 0.818-1.387 1.639-1.387 0.918 0 1.661 0.744 1.661 1.661 0 0.197-0.034 0.386-0.097 0.562l0.004-0.012c-0.020 0.058-0.032 0.125-0.032 0.195 0 0.294 0.208 0.54 0.485 0.598l0.004 0.001c0.897 0.192 1.469 1.073 1.279 1.971z"></path>
</symbol>
<symbol id="icon-navigation" viewBox="0 0 32 32">
<path fill="#fff" style="fill: var(--color1, #fff)" d="M16 0c-6.616 0-12 5.285-12 11.781 0 1.693 0.352 3.312 1.051 4.808 3 6.445 8.752 13.253 10.443 15.184 0.124 0.142 0.305 0.231 0.507 0.231s0.383-0.089 0.506-0.23l0.001-0.001c1.691-1.933 7.443-8.736 10.443-15.184 0.663-1.396 1.051-3.033 1.051-4.761 0-0.017-0-0.033-0-0.050v0.003c0-6.496-5.384-11.781-12-11.781zM16 17.901c-3.437 0-6.235-2.747-6.235-6.12 0-3.376 2.797-6.12 6.235-6.12s6.232 2.747 6.232 6.12-2.792 6.12-6.232 6.12z"></path>
</symbol>
<symbol id="icon-pine-tree" viewBox="0 0 32 32">
<path d="M31.478 23.147l-6.282-7.186h3.034c0.354-0 0.641-0.287 0.641-0.641 0-0.148-0.050-0.284-0.134-0.392l0.001 0.001-5.045-6.628h2.567c0.353-0.001 0.639-0.288 0.639-0.641 0-0.162-0.060-0.311-0.16-0.424l0.001 0.001-6.168-7.019c-0.118-0.134-0.29-0.218-0.481-0.218s-0.363 0.084-0.481 0.217l-0.001 0.001-6.177 7.012c-0.103 0.113-0.165 0.264-0.165 0.43 0 0.354 0.287 0.641 0.641 0.641 0.001 0 0.003 0 0.004 0h2.599l-1.555 2.027-4.156-4.728c-0.118-0.134-0.29-0.218-0.481-0.218s-0.363 0.084-0.481 0.217l-0.001 0.001-5.28 5.998c-0.1 0.113-0.16 0.261-0.16 0.424 0 0.354 0.287 0.641 0.641 0.641 0 0 0 0 0 0h2.034l-4.223 5.523c-0.077 0.105-0.124 0.236-0.124 0.378 0 0.351 0.281 0.636 0.631 0.641h2.374l-5.217 5.999c-0.095 0.111-0.153 0.257-0.153 0.416 0 0.352 0.283 0.638 0.634 0.641h7.096v4.493c0 0.686 0.557 1.244 1.244 1.244h1.958c0.002 0 0.005 0 0.007 0 0.685 0 1.241-0.554 1.244-1.238v-4.497h5.325v4.49c0 0.687 0.557 1.245 1.245 1.245h1.956c0.687 0 1.245-0.557 1.245-1.245v-6.543h8.68c0.354-0 0.641-0.287 0.641-0.641 0-0.162-0.060-0.311-0.16-0.424l0.001 0.001zM11.263 30.716l-1.887 0.039-0.039-4.49h1.926v4.452zM17.871 24.981h-15.464l5.248-5.985c0.103-0.113 0.166-0.264 0.166-0.43 0-0.354-0.287-0.641-0.641-0.641-0.006 0-0.013 0-0.019 0l0.001-0h-2.5l4.221-5.523c0.084-0.107 0.134-0.244 0.134-0.392 0-0.354-0.287-0.641-0.64-0.641h-1.926l3.85-4.381 3.85 4.369-2.707 3.58c-0.084 0.107-0.134 0.244-0.134 0.392 0 0.354 0.287 0.641 0.64 0.641h3.041l-6.282 7.183c-0.1 0.113-0.16 0.261-0.16 0.424 0 0.354 0.287 0.641 0.641 0.641 0 0 0 0 0 0h8.682v0.762zM21.034 30.705l-1.88 0.051-0.039-6.545h1.924l-0.006 6.493zM21.071 22.927h-10.47l6.28-7.185c0.099-0.112 0.159-0.261 0.159-0.423 0-0.354-0.287-0.641-0.641-0.641h-3.15l5.069-6.634c0.080-0.106 0.129-0.24 0.129-0.385 0-0.352-0.284-0.638-0.635-0.641h-2.457l4.76-5.402 4.735 5.402h-2.477c-0.353 0.001-0.639 0.288-0.639 0.641 0 0.148 0.050 0.284 0.134 0.392l-0.001-0.001 5.037 6.628h-3.126c-0.354 0-0.641 0.287-0.641 0.641 0 0.162 0.060 0.311 0.16 0.424l-0.001-0.001 6.282 7.186h-8.508z"></path>
</symbol>
<symbol id="icon-soon" viewBox="0 0 32 32">
<path fill="#fff" style="fill: var(--color1, #fff)" d="M21.781 10.574c-1.359-1.376-3.279-2.268-5.358-2.268-0.006-0-0.014-0-0.021-0-2.095 0-3.986 0.869-5.335 2.266l-0.002 0.002c-1.378 1.395-2.231 3.31-2.24 5.424v0.002c0 2.105 0.881 4.049 2.24 5.426 1.359 1.376 3.278 2.268 5.357 2.268 0.007 0 0.015 0 0.023 0 2.094 0 3.986-0.869 5.334-2.266l0.002-0.002c1.378-1.395 2.231-3.31 2.24-5.424v-0.002c0-2.105-0.84-4.049-2.24-5.426zM20.341 19.968c-0.995 1-2.373 1.62-3.896 1.62-0.008 0-0.015-0-0.023-0h0.001c-0.007 0-0.015 0-0.023 0-1.523 0-2.9-0.619-3.896-1.619l-0-0c-0.99-1.015-1.6-2.403-1.6-3.935 0-0.012 0-0.023 0-0.035v0.002c0-1.539 0.601-2.955 1.6-3.968 0.995-1 2.373-1.62 3.896-1.62 0.008 0 0.016 0 0.025 0h-0.001c0.007-0 0.014-0 0.022-0 1.523 0 2.9 0.619 3.896 1.619l0 0c0.99 1.015 1.6 2.403 1.6 3.934 0 0.012-0 0.024-0 0.036v-0.002c0 0.010 0 0.022 0 0.033 0 1.531-0.61 2.92-1.601 3.936l0.001-0.001zM30.497 14.947h-3.079c-0.573 0.015-1.033 0.479-1.039 1.053v0.001c0 0.566 0.48 1.053 1.039 1.053h3.079c0.561 0 1.039-0.487 1.039-1.053-0.007-0.574-0.466-1.039-1.038-1.053l-0.001-0zM16.423 26.081c-0.573 0.015-1.033 0.479-1.039 1.053v3.117c0 0.568 0.48 1.053 1.039 1.053s1.039-0.487 1.039-1.053v-3.117c-0.007-0.574-0.466-1.039-1.038-1.053l-0.001-0zM27.098 25.352l-2.198-2.226c-0.36-0.405-1.039-0.405-1.44 0-0.185 0.187-0.3 0.444-0.3 0.728s0.114 0.541 0.3 0.728l-0-0 2.198 2.226c0.183 0.188 0.438 0.304 0.72 0.304s0.537-0.116 0.72-0.304l0-0c0.185-0.187 0.3-0.444 0.3-0.728s-0.114-0.541-0.3-0.728l0 0zM16.423 0.696c-0.573 0.015-1.033 0.479-1.039 1.053v3.117c0 0.568 0.48 1.053 1.039 1.053s1.039-0.487 1.039-1.053v-3.117c-0.007-0.574-0.466-1.039-1.038-1.053l-0.001-0zM27.139 5.19c-0.183-0.188-0.438-0.304-0.72-0.304s-0.537 0.116-0.72 0.304l-0 0-2.198 2.226c-0.186 0.187-0.3 0.445-0.3 0.729s0.115 0.542 0.3 0.729l-0-0c0.36 0.405 1.039 0.405 1.44 0l2.198-2.226c0.186-0.187 0.3-0.445 0.3-0.729s-0.115-0.542-0.3-0.729l0 0zM5.426 14.947h-3.076c-0.574 0.013-1.035 0.478-1.042 1.053v0.001c0 0.566 0.441 1.053 1.041 1.053h3.078c0.559 0 1.039-0.487 1.039-1.053-0.007-0.574-0.466-1.039-1.038-1.053l-0.001-0zM9.345 23.126c-0.36-0.405-1.039-0.405-1.44 0l-2.198 2.226c-0.186 0.187-0.3 0.445-0.3 0.729s0.115 0.542 0.3 0.729l-0-0c0.183 0.187 0.437 0.303 0.719 0.303s0.537-0.116 0.719-0.303l0-0 2.2-2.226c0.186-0.187 0.3-0.445 0.3-0.729s-0.115-0.542-0.3-0.729l0 0zM9.345 7.416l-2.198-2.226c-0.183-0.188-0.438-0.304-0.72-0.304s-0.537 0.116-0.72 0.304l-0 0c-0.186 0.187-0.3 0.445-0.3 0.729s0.115 0.542 0.3 0.729l-0-0 2.198 2.226c0.183 0.188 0.438 0.304 0.72 0.304s0.537-0.116 0.72-0.304l0-0c0.185-0.187 0.3-0.444 0.3-0.728s-0.114-0.541-0.3-0.728l0 0z"></path>
</symbol>
<symbol id="icon-star-full" viewBox="0 0 32 32">
<path fill="#fff" style="fill: var(--color1, #fff)" d="M16 24.621l9.888 5.566-2.615-10.496 8.727-7.061-11.505-0.917-4.495-9.899-4.495 9.897-11.505 0.919 8.727 7.061-2.615 10.496 9.888-5.566z"></path>
</symbol>
<symbol id="icon-star-no" viewBox="0 0 32 32">
<path fill="none" stroke="#f3f3f3" style="stroke: var(--color2, #f3f3f3)" stroke-linejoin="miter" stroke-linecap="butt" stroke-miterlimit="4" stroke-width="2.1333" d="M16.523 23.691l-0.523-0.294-8.254 4.646 2.016-8.094 0.166-0.661-0.529-0.427-6.652-5.38 9.47-0.757 0.26-0.572 3.522-7.759 3.782 8.331 0.627 0.049 8.843 0.708-7.179 5.807 0.164 0.661 2.016 8.094-7.731-4.352z"></path>
</symbol>
<symbol id="icon-strelka-levo" viewBox="0 0 32 32">
<path fill="#fff" style="fill: var(--color1, #fff)" d="M1.477 16.809c-0.207-0.207-0.336-0.493-0.336-0.809s0.128-0.602 0.336-0.809l7.273-7.273c0.207-0.207 0.493-0.335 0.809-0.335 0.632 0 1.144 0.512 1.144 1.144 0 0.316-0.128 0.602-0.335 0.809l-6.466 6.464 6.466 6.464c0.207 0.207 0.335 0.493 0.335 0.809 0 0.632-0.512 1.144-1.144 1.144-0.316 0-0.602-0.128-0.809-0.335v0l-7.273-7.273zM32 17.143h-29.714v-2.286h29.714v2.286z"></path>
</symbol>
<symbol id="icon-strelka-pravo" viewBox="0 0 32 32">
<path fill="#fff" style="fill: var(--color1, #fff)" d="M30.523 16.809c0.207-0.207 0.336-0.493 0.336-0.809s-0.128-0.602-0.336-0.809l-7.273-7.273c-0.207-0.207-0.493-0.335-0.809-0.335-0.632 0-1.144 0.512-1.144 1.144 0 0.316 0.128 0.602 0.335 0.809l6.466 6.464-6.466 6.464c-0.207 0.207-0.335 0.493-0.335 0.809 0 0.632 0.512 1.144 1.144 1.144 0.316 0 0.602-0.128 0.809-0.335v0l7.273-7.273zM0 17.143h29.714v-2.286h-29.714v2.286z"></path>
</symbol>
<symbol id="icon-vk" viewBox="0 0 32 32">
<path fill="#fff" style="fill: var(--color1, #fff)" d="M31.715 23.157c-0.085-0.144-0.619-1.301-3.179-3.68-2.68-2.485-2.32-2.080 0.907-6.384 1.968-2.621 2.755-4.221 2.507-4.907-0.232-0.651-1.68-0.48-1.68-0.48l-4.805 0.032s-0.355-0.048-0.621 0.112c-0.259 0.155-0.424 0.515-0.424 0.515s-0.763 2.027-1.779 3.752c-2.144 3.637-3.003 3.829-3.352 3.603-0.813-0.525-0.611-2.117-0.611-3.245 0-3.525 0.533-4.995-1.040-5.376-0.528-0.125-0.912-0.211-2.251-0.224-1.712-0.019-3.168 0.005-3.989 0.408-0.549 0.267-0.971 0.867-0.712 0.901 0.32 0.040 1.040 0.192 1.421 0.712 0.493 0.672 0.475 2.179 0.475 2.179s0.285 4.152-0.661 4.667c-0.651 0.355-1.541-0.368-3.451-3.669-0.566-0.976-1.141-2.146-1.642-3.356l-0.075-0.204s-0.144-0.347-0.397-0.533c-0.307-0.229-0.739-0.299-0.739-0.299l-4.576 0.027s-0.685 0.021-0.939 0.32c-0.224 0.267-0.019 0.813-0.019 0.813s3.581 8.373 7.635 12.597c3.717 3.867 7.939 3.616 7.939 3.616h1.912s0.576-0.064 0.872-0.384c0.272-0.293 0.261-0.84 0.261-0.84s-0.035-2.565 1.157-2.944c1.173-0.373 2.683 2.48 4.28 3.579 1.208 0.829 2.125 0.648 2.125 0.648l4.275-0.059s2.237-0.139 1.176-1.896z"></path>
</symbol>
<symbol id="icon-znak-bolshe" viewBox="0 0 32 32">
<path stroke-linejoin="miter" stroke-linecap="butt" stroke-miterlimit="4" stroke-width="4.5714" d="M8 29.714l13.714-13.714-13.714-13.714"></path>
</symbol>
</defs>
</svg>
